<svg width="711" height="720" viewBox="0 0 711 720" fill="none" xmlns="http://www.w3.org/2000/svg">
<g clip-path="url(#clip0_707_9)">
<g filter="url(#filter0_d_707_9)">
<path d="M12.5345 32.6778L355.815 9.5394L675.131 9.5394L698.095 336.908L698.095 667.139L366.815 690.277L35.4984 690.277L12.5346 380.908L12.5345 32.6778Z" fill="black"/>
</g>
<path d="M227.2 120C236.267 120 245.2 120.4 254 121.2L254.4 121.6C250.4 167.733 245.867 213.733 240.8 259.6C236 305.467 231.733 351.6 228 398C226.133 398.533 224 398.8 221.6 398.8C219.467 398.8 217.067 398.8 214.4 398.8H200H195.2C192.8 395.6 190.667 391.067 188.8 385.2C187.2 379.067 185.467 372.667 183.6 366C181.733 359.067 179.867 352.4 178 346C176.133 339.6 174 334.533 171.6 330.8H171.2C168.8 333.2 166.667 337.467 164.8 343.6C163.2 349.467 161.6 355.867 160 362.8C158.4 369.467 156.8 376 155.2 382.4C153.6 388.8 151.733 393.733 149.6 397.2C146.133 397.733 142.933 398.267 140 398.8C137.067 399.067 133.733 399.2 130 399.2C125.733 399.2 120.667 398.8 114.8 398H114.4C108 352.4 101.733 306.533 95.6 260.4C89.4667 214.267 86 168.133 85.2 122V121.6C89.2 121.067 93.3333 120.667 97.6 120.4C102.133 119.867 106.667 119.6 111.2 119.6C116.533 119.6 121.867 119.733 127.2 120C132.533 120.267 137.6 120.533 142.4 120.8C143.467 132.533 144 145.733 144 160.4C144 175.067 144 189.867 144 204.8C144 219.733 144.4 234.4 145.2 248.8C146 263.2 147.867 276.133 150.8 287.6C154.267 275.6 157.333 263.867 160 252.4C162.933 240.667 165.867 228.8 168.8 216.8C169.067 216.267 169.2 215.867 169.2 215.6C169.2 215.333 169.333 215.067 169.6 214.8C170.667 215.6 172.133 219.467 174 226.4C176.133 233.067 178.133 240.667 180 249.2C182.133 257.733 184.133 266.133 186 274.4C188.133 282.667 190 288.8 191.6 292.8C192.667 281.333 193.467 268.267 194 253.6C194.533 238.667 194.933 223.467 195.2 208C195.733 192.533 196.133 177.467 196.4 162.8C196.933 147.867 197.733 134.533 198.8 122.8V122.4C203.333 121.333 208 120.667 212.8 120.4C217.6 120.133 222.4 120 227.2 120ZM394.338 345.2C411.404 346 429.004 346.133 447.138 345.6V346.4C447.671 354.933 447.804 363.867 447.538 373.2C447.271 382.267 446.071 390.8 443.938 398.8C416.738 398.533 389.004 398.933 360.738 400C332.738 400.8 305.804 400.133 279.938 398C279.938 374.8 279.671 351.867 279.138 329.2C278.604 306.267 278.204 283.467 277.938 260.8C277.671 238.133 277.671 215.467 277.938 192.8C278.204 170.133 279.004 147.333 280.338 124.4C290.738 123.867 301.938 123.467 313.938 123.2C326.204 122.667 338.471 122.267 350.738 122C363.004 121.733 374.871 121.467 386.338 121.2C397.804 120.933 407.938 120.8 416.738 120.8C425.538 120.8 432.604 120.933 437.938 121.2C443.271 121.467 445.938 121.733 445.938 122C447.271 131.333 447.538 140.8 446.738 150.4C446.204 160 445.938 169.467 445.938 178.8V179.2C437.404 181.067 428.738 182.267 419.938 182.8C411.404 183.067 402.738 183.2 393.938 183.2C385.138 182.933 376.338 182.8 367.537 182.8C358.738 182.8 349.938 183.2 341.138 184H339.938L339.538 184.4C339.804 192.133 339.404 200.133 338.338 208.4C337.538 216.4 338.071 224 339.938 231.2L340.338 231.6C348.338 232.133 356.471 232.4 364.737 232.4C373.004 232.4 381.271 232.533 389.538 232.8V233.2C390.871 242.267 391.271 251.333 390.738 260.4C390.204 269.467 390.071 278.933 390.338 288.8C386.338 289.867 381.804 290.533 376.738 290.8C371.671 290.8 366.738 290.8 361.938 290.8C357.404 290.8 353.271 290.933 349.538 291.2C345.804 291.467 343.271 292.133 341.938 293.2C340.604 300.933 340.071 309.6 340.338 319.2C340.871 328.8 341.404 336.8 341.938 343.2L342.338 343.6C359.938 343.6 377.271 344.133 394.338 345.2ZM609.716 263.6C610.249 264.667 611.182 266 612.516 267.6C616.782 272.933 620.782 278.267 624.516 283.6C628.516 288.667 631.849 294.133 634.516 300C637.449 305.6 639.449 311.867 640.516 318.8C641.582 325.733 641.316 333.467 639.716 342C637.582 354.533 633.449 364.8 627.316 372.8C621.449 380.533 614.249 386.533 605.716 390.8C597.182 395.067 587.716 398 577.316 399.6C566.916 400.933 556.116 401.6 544.916 401.6C533.982 401.867 522.916 401.6 511.716 400.8C500.782 400 490.516 399.467 480.916 399.2C479.316 399.2 477.716 399.2 476.116 399.2C474.782 399.2 473.449 398.933 472.116 398.4C470.516 352.267 470.116 306.533 470.916 261.2C471.716 215.6 471.716 169.6 470.916 123.2L471.316 122.8C481.982 119.867 493.316 117.6 505.316 116C517.316 114.4 529.182 113.867 540.916 114.4C552.649 114.933 563.849 116.667 574.516 119.6C585.449 122.533 595.049 127.333 603.316 134C611.582 140.4 618.116 148.8 622.916 159.2C627.716 169.333 630.116 181.867 630.116 196.8C630.116 208 628.116 218.933 624.116 229.6C620.382 240.267 615.849 250.133 610.516 259.2C609.449 261.067 609.182 262.533 609.716 263.6ZM565.316 341.2C569.049 339.6 572.249 337.2 574.916 334C577.849 330 579.182 325.2 578.916 319.6C578.916 314 577.982 308.933 576.116 304.4C574.516 301.2 572.116 298.4 568.916 296C565.716 293.333 562.382 291.6 558.916 290.8C553.849 289.467 548.649 288.8 543.316 288.8C537.982 288.533 532.782 288.133 527.716 287.6C526.649 291.6 525.716 296.133 524.916 301.2C524.116 306.267 523.582 311.467 523.316 316.8C523.316 321.867 523.716 326.8 524.516 331.6C525.316 336.4 526.782 340.4 528.916 343.6L529.716 344C533.449 344 537.316 344.133 541.316 344.4C545.582 344.4 549.716 344.267 553.716 344C557.982 343.467 561.849 342.533 565.316 341.2ZM565.716 229.2C569.449 227.067 572.382 224 574.516 220C576.382 216.8 577.982 213.067 579.316 208.8C580.649 204.533 580.249 200.267 578.116 196C575.982 191.733 573.182 188.533 569.716 186.4C566.516 184 562.782 182.267 558.516 181.2C553.182 180.133 547.449 179.6 541.316 179.6C535.449 179.333 530.516 180.267 526.516 182.4C527.049 188.533 526.782 196 525.716 204.8C524.916 213.6 525.716 222.667 528.116 232C532.116 232.533 536.382 232.933 540.916 233.2C545.449 233.467 549.849 233.333 554.116 232.8C558.382 232.267 562.249 231.067 565.716 229.2Z" fill="white"/>
<path d="M164.8 548.2C156.4 529.8 150.867 517.067 148.2 510V548.4C148.2 556.667 148.267 562.333 148.4 565.4C144.8 566.467 140.867 567 136.6 567C135.267 567 133.267 566.867 130.6 566.6C127.667 566.333 125.533 566.2 124.2 566.2L114.4 565.8V550.8C114.4 542.267 114.267 530.133 114 514.4C113.867 506.533 113.8 494.6 113.8 478.6C113.8 457.133 114.4 439.133 115.6 424.6C119.2 423.667 123.2 423.2 127.6 423.2C130.533 423.2 134.067 423.467 138.2 424C142.467 424.533 145.4 425.333 147 426.4C148.867 429.867 151.133 434.733 153.8 441C156.6 447.133 159.267 453.267 161.8 459.4L169.8 477.8C169.533 468.467 169.4 457.467 169.4 444.8C169.4 434.533 169.467 427.467 169.6 423.6C175.067 422.533 180.867 422 187 422C192.2 422 197.6 422.6 203.2 423.8V565.6C202.8 565.6 202 565.8 200.8 566.2C199.467 566.733 197.133 567 193.8 567C193.133 567.133 189.6 566.933 183.2 566.4C181.6 566.267 179.533 566.133 177 566C174.6 565.867 173.2 565.867 172.8 566L164.8 548.2ZM299.209 565.6C294.943 566.533 290.343 567 285.409 567C279.543 567 273.143 566.267 266.209 564.8C265.276 562.267 263.809 556.933 261.809 548.8C259.809 540.533 258.209 535.067 257.009 532.4L253.009 532.2L249.609 532.4C249.076 534 248.209 537.933 247.009 544.2C246.076 549.4 245.143 553.667 244.209 557C243.276 560.2 241.943 563.133 240.209 565.8C238.876 566.067 236.876 566.2 234.209 566.2C233.009 566.2 230.409 566.067 226.409 565.8C214.809 565.267 208.343 565 207.009 565C207.009 564.333 207.143 562.8 207.409 560.4C207.676 557.867 208.076 555.067 208.609 552L213.009 526.8C216.476 506.133 219.743 488.133 222.809 472.8C226.009 457.467 230.143 441.267 235.209 424.2C237.076 423.933 239.609 423.8 242.809 423.8H244.009C252.676 423.8 261.143 423.467 269.409 422.8C271.009 429.067 272.476 435.267 273.809 441.4C275.143 447.4 276.343 452.8 277.409 457.6C281.676 476.133 284.543 488.467 286.009 494.6L299.209 565.6ZM257.409 506.8C254.476 480.133 253.076 466.8 253.209 466.8L253.009 464.8C253.009 464.8 252.876 466.4 252.609 469.6C252.209 479.6 251.609 487.533 250.809 493.4L249.009 506.8H257.409ZM375.548 425C375.815 429.533 375.948 433.8 375.948 437.8C375.948 445.533 375.482 452.467 374.548 458.6C370.148 457.8 366.682 457.4 364.148 457.4L354.748 457.2C351.282 457.2 349.548 457.4 349.548 457.8C349.282 459.667 349.148 463.6 349.148 469.6C349.148 481.333 349.615 512.933 350.548 564.4C346.682 565.067 342.148 565.4 336.948 565.4H331.148C324.482 565.4 318.348 565.867 312.748 566.8C312.348 566.133 312.015 564.8 311.748 562.8C311.615 560.667 311.615 558.733 311.748 557V547.2L311.948 529.2C311.948 504.933 311.415 481.267 310.348 458.2C308.882 457.533 306.815 457.2 304.148 457.2L296.148 457.4C291.615 457.4 288.348 457.067 286.348 456.4C285.948 455.6 285.615 453.4 285.348 449.8C285.082 446.2 284.948 442.133 284.948 437.6C284.948 430.933 285.015 426.133 285.148 423.2H293.748L301.548 423H312.748L324.348 422.8C344.215 422.8 360.415 423.533 372.948 425H375.548ZM422.22 425.2C422.22 440.8 422.02 456.533 421.62 472.4C421.087 493.467 420.82 510.067 420.82 522.2C420.82 536.2 421.22 550.133 422.02 564C420.02 566 414.82 567 406.42 567C401.62 567 398.087 566.933 395.82 566.8L393.42 566.6L389.82 566.4C387.154 566.4 383.754 566.933 379.62 568C380.42 556.4 380.82 544.067 380.82 531C380.82 525.8 380.687 518.133 380.42 508L380.22 496.4C379.687 482.267 379.42 470.8 379.42 462C379.42 448.8 380.02 435.8 381.22 423C382.954 422.733 384.82 422.6 386.82 422.6C387.887 422.6 389.354 422.733 391.22 423C393.087 423.133 395.287 423.133 397.82 423C404.754 423.4 410.287 423.533 414.42 423.4H422.22V425.2ZM518.973 427.2C514.84 449.2 510.173 470.6 504.973 491.4C499.773 512.2 493.24 537 485.373 565.8C482.44 565.8 480.44 565.867 479.373 566L477.373 566.2C474.973 566.467 472.507 566.6 469.973 566.6C461.573 566.6 455.04 565.8 450.373 564.2C438.773 523.267 430.973 478.133 426.973 428.8C428.173 427.467 430.64 426.467 434.373 425.8C438.107 425.133 442.24 424.8 446.773 424.8C451.04 424.8 455.84 425.267 461.173 426.2L462.373 444C463.173 457.2 464.04 468.667 464.973 478.4C465.907 488 467.24 497.533 468.973 507C470.573 499.667 473.04 486.333 476.373 467C480.373 443.4 483.04 429.333 484.373 424.8C489.573 425.867 495.507 426.4 502.173 426.4C508.84 426.4 513.573 426.667 516.373 427.2H518.973ZM610.859 547.2C610.859 554 610.126 560.067 608.659 565.4C602.793 565.4 594.126 565.533 582.659 565.8L556.459 566C544.593 566 532.726 565.6 520.859 564.8C520.993 560.533 520.793 543.933 520.259 515C519.859 498.6 519.659 486 519.659 477.2C519.659 458.933 520.126 441.933 521.059 426.2L538.659 425.6C558.393 424.8 573.459 424.4 583.859 424.4C592.793 424.4 601.459 424.733 609.859 425.4C610.393 428.2 610.659 431.467 610.659 435.2C610.659 437.2 610.526 440.467 610.259 445C609.993 449.267 609.859 452.6 609.859 455C601.859 456.733 592.926 457.6 583.059 457.6L557.059 457.8C556.393 464.067 556.059 469.267 556.059 473.4C556.059 476.6 556.459 479.4 557.259 481.8L570.459 480.2C572.326 480.2 575.126 480.333 578.859 480.6L581.459 480.8C582.126 484.8 582.459 489.133 582.459 493.8L582.059 509.8C577.793 511 572.059 511.6 564.859 511.6L559.659 511.4C558.726 511.4 558.126 511.533 557.859 511.8L557.059 522.2C557.059 527.667 557.326 532.2 557.859 535.8C564.793 535.8 571.526 536 578.059 536.4C580.326 536.533 583.126 536.667 586.459 536.8C589.793 536.933 593.726 537 598.259 537L610.459 536.6C610.726 542.733 610.859 546.267 610.859 547.2Z" fill="#669E21"/>
</g>
<defs>
<filter id="filter0_d_707_9" x="8.53455" y="9.5394" width="693.56" height="688.737" filterUnits="userSpaceOnUse" color-interpolation-filters="sRGB">
<feFlood flood-opacity="0" result="BackgroundImageFix"/>
<feColorMatrix in="SourceAlpha" type="matrix" values="0 0 0 0 0 0 0 0 0 0 0 0 0 0 0 0 0 0 127 0" result="hardAlpha"/>
<feOffset dy="4"/>
<feGaussianBlur stdDeviation="2"/>
<feComposite in2="hardAlpha" operator="out"/>
<feColorMatrix type="matrix" values="0 0 0 0 0 0 0 0 0 0 0 0 0 0 0 0 0 0 0.25 0"/>
<feBlend mode="normal" in2="BackgroundImageFix" result="effect1_dropShadow_707_9"/>
<feBlend mode="normal" in="SourceGraphic" in2="effect1_dropShadow_707_9" result="shape"/>
</filter>
<clipPath id="clip0_707_9">
<rect width="711" height="720" fill="white"/>
</clipPath>
</defs>
</svg>
